HIERARCHY
ROOT Hips
{
	OFFSET	0.00	0.00	0.00
	CHANNELS 6 Xposition Yposition Zposition Zrotation Xrotation Yrotation
	JOINT LeftUpLeg
	{
		OFFSET	 0.126116	-0.014019	-0.065224
		CHANNELS 3 Zrotation Xrotation Yrotation
		JOINT LeftLeg
		{
			OFFSET	 0.000000	 0.000000	 0.569914
			CHANNELS 3 Zrotation Xrotation Yrotation
			JOINT LeftFoot
			{
				OFFSET	 0.000000	 0.000000	 0.544423
				CHANNELS 3 Zrotation Xrotation Yrotation
				JOINT LeftToeBase
				{
					OFFSET	 0.000000	 0.000000	 0.207117
					CHANNELS 3 Zrotation Xrotation Yrotation
					End Site
					{
						OFFSET	 0.000000	 0.000000	 0.207117
					}
				}
			}
		}
	}
	JOINT RightUpLeg
	{
		OFFSET	-0.124023	-0.008373	-0.065224
		CHANNELS 3 Zrotation Xrotation Yrotation
		JOINT RightLeg
		{
			OFFSET	 0.000000	 0.000000	 0.570047
			CHANNELS 3 Zrotation Xrotation Yrotation
			JOINT RightFoot
			{
				OFFSET	 0.000000	 0.000000	 0.544354
				CHANNELS 3 Zrotation Xrotation Yrotation
				JOINT RightToeBase
				{
					OFFSET	 0.000000	 0.000000	 0.207540
					CHANNELS 3 Zrotation Xrotation Yrotation
					End Site
					{
						OFFSET	 0.000000	 0.000000	 0.207540
					}
				}
			}
		}
	}
	JOINT Spine
	{
		OFFSET	 0.000184	-0.007763	 0.117403
		CHANNELS 3 Zrotation Xrotation Yrotation
		JOINT Spine1
		{
			OFFSET	 0.000000	 0.000000	 0.137269
			CHANNELS 3 Zrotation Xrotation Yrotation
			JOINT Spine2
			{
				OFFSET	 0.000000	 0.000000	 0.156879
				CHANNELS 3 Zrotation Xrotation Yrotation
				JOINT LeftShoulder
				{
					OFFSET	 0.080501	-0.002496	 0.160144
					CHANNELS 3 Zrotation Xrotation Yrotation
					JOINT LeftArm
					{
						OFFSET	 0.000000	 0.000000	 0.164363
						CHANNELS 3 Zrotation Xrotation Yrotation
						JOINT LeftForeArm
						{
							OFFSET	 0.000000	 0.000000	 0.364576
							CHANNELS 3 Zrotation Xrotation Yrotation
							JOINT LeftHand
							{
								OFFSET	 0.000000	 0.000000	 0.360812
								CHANNELS 3 Zrotation Xrotation Yrotation
								JOINT LeftHandIndex1
								{
									OFFSET	 0.000000	 0.000000	 0.086006
									CHANNELS 3 Zrotation Xrotation Yrotation
									JOINT LeftHandIndex2
									{
										OFFSET	 0.000000	 0.000000	 0.047236
										CHANNELS 3 Zrotation Xrotation Yrotation
										JOINT LeftHandIndex3
										{
											OFFSET	-0.004284	-0.000551	 0.038166
											CHANNELS 3 Zrotation Xrotation Yrotation
											End Site
											{
												OFFSET	-0.004284	-0.000551	 0.038166
											}
										}
									}
								}
							}
						}
					}
				}
				JOINT Neck
				{
					OFFSET	 0.000000	 0.000000	 0.176489
					CHANNELS 3 Zrotation Xrotation Yrotation
					JOINT Head
					{
						OFFSET	 0.000000	-0.001747	 0.077940
						CHANNELS 3 Zrotation Xrotation Yrotation
						End Site
						{
							OFFSET	 0.000000	-0.001747	 0.077940
						}
					}
				}
				JOINT RightShoulder
				{
					OFFSET	-0.080363	 0.000306	 0.159706
					CHANNELS 3 Zrotation Xrotation Yrotation
					JOINT RightArm
					{
						OFFSET	 0.000000	 0.000000	 0.164196
						CHANNELS 3 Zrotation Xrotation Yrotation
						JOINT RightForeArm
						{
							OFFSET	 0.000000	 0.000000	 0.365611
							CHANNELS 3 Zrotation Xrotation Yrotation
							JOINT RightHand
							{
								OFFSET	 0.000000	 0.000000	 0.360648
								CHANNELS 3 Zrotation Xrotation Yrotation
								JOINT RightHandIndex1
								{
									OFFSET	 0.000000	 0.000000	 0.069977
									CHANNELS 3 Zrotation Xrotation Yrotation
									JOINT RightHandIndex2
									{
										OFFSET	 0.000000	 0.000000	 0.052305
										CHANNELS 3 Zrotation Xrotation Yrotation
										JOINT RightHandIndex3
										{
											OFFSET	 0.009002	-0.000782	 0.042196
											CHANNELS 3 Zrotation Xrotation Yrotation
											End Site
											{
												OFFSET	 0.009002	-0.000782	 0.042196
											}
										}
									}
								}
							}
						}
					}
				}
			}
		}
	}
}
MOTION
Frames:    10
Frame Time: 0.03333334
 4.021883	 0.025013	 0.241400	 93.745540	-2.082687	 0.039212	 6.414405	-1.816994	-178.383300	-2.566822	-35.202800	 1.190541	 17.511340	 89.913770	-16.564290	-2.376362	 30.388690	-0.042412	 1.657092	-30.038470	 179.489300	 19.978760	-71.939480	 23.410840	 179.214700	 89.070010	-171.840700	 2.378473	 29.694720	 0.028508	 25.261030	 4.713329	 1.528394	-10.912360	-0.988535	 0.534914	-11.754300	-3.220132	-1.109450	-91.794210	 78.150710	 178.888600	 35.626630	 63.396220	-47.650860	-0.178791	-10.969170	-37.043830	 5.087949	-47.510780	-2.723983	-3.812334	 37.924440	-2.927599	-2.450526	 36.184240	 0.754587	-1.378229	 35.397820	-2.634230	-0.322178	 4.054966	-1.933224	-2.520926	-11.998080	-2.159410	 89.792090	 78.676310	 179.515500	-41.793790	 71.375500	 43.714590	-7.613278	-13.683610	 32.752220	-9.972169	-48.544400	 9.054507	 6.437017	 35.671460	-0.771858	 2.830251	 35.756010	-7.813440	-2.350882	 35.473990	 5.254307
 4.068198	 0.031112	 0.238831	 93.956630	-1.747216	-0.543973	 6.010137	 1.940620	-177.454600	-3.059476	-31.789830	 0.945279	 18.731350	 89.833310	-18.124490	-2.375818	 30.488820	-0.044645	 1.980520	-32.617640	 179.738100	 13.937010	-65.506030	 16.970780	-175.166600	 88.913220	-177.178800	 2.377723	 29.843510	 0.031787	 22.496180	 4.608117	 2.191413	-11.054740	-1.015126	 0.485437	-11.779100	-3.250816	-1.114949	-91.773840	 78.571200	 178.792700	 35.088820	 62.271080	-48.668910	 1.162973	-12.813060	-39.735590	 6.274953	-50.121030	-1.709874	-3.812334	 37.924440	-2.927599	-2.450526	 36.184240	 0.754587	-1.378229	 35.397820	-2.634230	-0.359258	 4.173609	-2.372247	-2.414471	-12.310450	-1.987328	 89.783340	 78.258060	 179.463900	-41.659900	 71.497220	 42.927270	-8.697184	-15.191370	 34.715310	-10.293350	-51.219610	 8.370848	 6.437017	 35.671460	-0.771858	 2.830251	 35.756010	-7.813440	-2.350882	 35.473990	 5.254307
 4.113786	 0.036271	 0.237042	 94.111240	-1.357667	-0.821351	 6.108421	 6.249556	-177.010300	-3.438828	-26.847200	 1.015344	 9.052239	 89.259540	-8.282560	-2.370379	 31.450600	-0.066208	 2.208989	-34.332910	 179.747400	 10.388890	-58.263680	 12.817760	-163.503900	 89.314140	 171.507300	 2.383003	 28.756240	 0.007967	 19.487850	 4.446111	 2.517354	-11.113390	-1.029455	 0.453082	-11.797280	-3.241273	-1.115703	-91.761800	 78.787610	 178.756800	 34.709480	 61.313410	-49.588440	 2.123158	-14.373780	-41.886910	 7.215333	-52.130000	-0.636817	-3.812334	 37.924440	-2.927599	-2.450526	 36.184240	 0.754587	-1.378229	 35.397820	-2.634230	-0.357233	 4.305617	-2.693605	-2.371626	-12.544110	-1.949020	 89.778380	 78.045080	 179.447300	-41.575520	 71.660870	 42.452610	-9.759879	-16.519700	 36.015070	-10.910640	-53.277110	 7.581846	 6.437017	 35.671460	-0.771858	 2.830251	 35.756010	-7.813440	-2.350882	 35.473990	 5.254307
 4.167179	 0.041365	 0.235230	 94.272730	-0.863525	-1.023423	 7.064047	 12.435130	-176.922000	-3.738649	-18.637860	 1.395940	 4.688356	 86.732770	-2.613426	-2.358040	 33.369140	-0.110247	 2.654724	-35.307480	 179.706000	 7.524303	-49.864550	 9.404778	-144.714600	 89.579420	 152.903700	 2.388677	 27.432510	-0.020557	 15.754630	 4.142011	 2.717304	-11.073710	-1.105841	 0.452842	-11.743420	-3.209144	-1.107294	-91.755180	 78.903750	 178.748100	 34.377710	 60.578940	-50.401320	 3.119858	-16.025960	-43.644800	 8.419260	-53.652770	 0.586010	-3.812334	 37.924440	-2.927599	-2.450526	 36.184240	 0.754587	-1.378229	 35.397820	-2.634230	-0.258539	 4.400153	-2.992735	-2.295260	-12.675560	-1.910834	 89.775830	 77.930310	 179.456900	-41.434000	 71.925350	 42.136840	-11.061650	-17.780400	 36.653190	-12.011980	-54.895270	 6.573559	 6.437017	 35.671460	-0.771858	 2.830251	 35.756010	-7.813440	-2.350882	 35.473990	 5.254307
 4.213774	 0.045671	 0.232756	 94.509350	-0.767291	-1.230233	 8.253352	 18.163660	-176.761300	-4.064124	-11.620470	 1.566041	 3.495656	 84.058390	 0.334052	-2.338467	 35.908390	-0.170917	 3.077567	-35.855590	 179.772800	 5.243938	-43.556480	 6.965609	-155.432900	 89.491780	 163.192700	 2.382228	 28.923860	 0.011613	 12.215560	 3.955439	 2.853098	-11.026400	-1.164321	 0.483136	-11.659520	-3.184052	-1.096786	-91.752510	 78.944200	 178.730600	 34.334370	 60.294520	-51.067210	 3.945221	-17.298120	-44.532100	 9.519355	-54.313720	 1.573575	-3.812334	 37.924440	-2.927599	-2.450526	 36.184240	 0.754587	-1.378229	 35.397820	-2.634230	-0.156007	 4.378194	-3.180833	-2.188751	-12.631340	-1.795679	 89.774650	 77.890240	 179.436200	-41.293400	 72.212880	 42.047760	-12.361790	-18.585220	 36.443480	-13.297800	-55.641870	 5.660041	 6.437017	 35.671460	-0.771858	 2.830251	 35.756010	-7.813440	-2.350882	 35.473990	 5.254307
 4.265324	 0.048297	 0.230871	 94.964680	-0.858036	-1.292284	 8.308750	 20.719280	-177.405900	-3.685086	-11.612130	 1.627622	 4.045535	 84.056840	 0.074589	-2.308769	 39.026250	-0.249826	 3.232097	-35.570380	 179.713000	 3.418429	-38.916970	 5.146707	-171.001100	 89.167720	 177.966400	 2.371698	 30.956820	 0.056581	 7.936035	 4.060678	 2.737840	-11.052500	-1.212849	 0.477336	-11.589300	-3.185086	-1.090239	-91.756290	 78.871090	 178.700100	 34.808470	 60.314870	-52.068470	 4.965985	-18.487760	-44.789670	 10.742480	-54.331780	 2.496862	-3.812334	 37.924440	-2.927599	-2.450526	 36.184240	 0.754587	-1.378229	 35.397820	-2.634230	-0.110579	 4.260195	-3.247514	-2.071374	-12.445190	-1.546842	 89.775320	 77.957800	 179.345000	-40.894010	 72.611500	 41.753430	-13.775860	-19.260100	 35.852280	-14.881840	-55.750350	 4.686302	 6.437017	 35.671460	-0.771858	 2.830251	 35.756010	-7.813440	-2.350882	 35.473990	 5.254307
 4.319917	 0.050441	 0.229081	 95.438470	-0.950325	-1.258007	 8.455441	 23.390500	-178.390200	-2.875628	-11.593630	 1.756160	 4.905226	 83.069500	-0.106938	-2.272472	 42.097720	-0.333366	 3.086333	-34.867830	 179.496600	 2.939519	-37.299610	 4.559733	 178.434500	 89.176230	-171.840100	 2.368521	 31.502440	 0.068878	 3.539758	 4.071057	 2.476062	-11.086790	-1.215222	 0.425857	-11.551100	-3.179209	-1.086031	-91.761720	 78.770450	 178.661200	 35.547510	 60.717190	-52.770940	 6.130588	-19.383530	-44.280820	 11.889330	-53.616230	 3.147885	-3.812334	 37.924440	-2.927599	-2.450526	 36.184240	 0.754587	-1.378229	 35.397820	-2.634230	-0.111346	 4.168827	-3.230459	-1.991132	-12.196580	-1.200052	 89.777770	 78.059060	 179.293600	-39.999120	 73.087870	 40.810700	-15.049920	-19.751620	 35.131440	-16.453560	-55.139280	 3.845633	 6.437017	 35.671460	-0.771858	 2.830251	 35.756010	-7.813440	-2.350882	 35.473990	 5.254307
 4.387538	 0.051871	 0.226779	 95.884000	-1.125996	-1.135494	 8.870510	 26.430710	-179.862200	-1.941921	-11.569540	 1.910259	 5.569487	 80.380990	 0.154061	-2.207169	 46.413160	-0.463200	 2.866730	-33.613290	 179.002700	 4.053630	-38.629060	 5.346457	 14.760240	 89.403900	-7.600955	 2.376902	 30.001290	 0.035272	-1.491014	 3.607143	 2.146906	-11.028570	-1.177326	 0.301239	-11.483510	-3.105305	-1.072257	-91.763800	 78.729000	 178.611900	 36.582240	 61.604660	-53.008400	 7.523415	-19.963950	-42.922450	 12.947340	-52.011280	 3.559086	-3.812334	 37.924440	-2.927599	-2.450526	 36.184240	 0.754587	-1.378229	 35.397820	-2.634230	-0.054461	 4.237152	-3.280994	-1.904504	-11.890790	-0.621364	 89.779560	 78.111300	 179.341200	-38.474820	 73.601720	 38.901780	-16.461450	-20.125020	 34.252250	-18.130370	-53.618700	 3.110662	 6.437017	 35.671460	-0.771858	 2.830251	 35.756010	-7.813440	-2.350882	 35.473990	 5.254307
 4.457681	 0.052823	 0.225361	 96.489940	-1.507371	-0.891550	 9.501559	 29.193690	 178.307400	-1.106518	-11.548660	 2.034292	 5.621272	 75.333780	 1.088961	-2.142101	 49.765270	-0.577055	 2.154414	-32.025620	 178.087000	 6.537148	-41.448410	 7.034826	 7.551585	 86.853720	 0.633199	 2.388747	 27.414980	-0.020930	-6.563857	 3.104966	 1.613860	-10.959620	-1.115512	 0.131294	-11.375320	-2.964391	-1.048156	-91.770630	 78.614170	 178.551800	 37.620580	 62.909150	-52.426410	 8.882067	-20.307990	-41.357170	 13.836260	-49.650440	 3.604412	-3.812334	 37.924440	-2.927599	-2.450526	 36.184240	 0.754587	-1.378229	 35.397820	-2.634230	 0.015201	 4.449186	-3.188290	-1.783491	-11.530280	-0.091220	 89.782950	 78.234440	 179.363200	-36.454940	 73.982830	 36.241560	-17.733260	-20.331010	 33.432490	-19.539850	-51.330150	 2.669386	 6.437017	 35.671460	-0.771858	 2.830251	 35.756010	-7.813440	-2.350882	 35.473990	 5.254307
 4.520391	 0.053937	 0.226589	 97.052410	-2.035212	-0.833182	 9.617441	 30.472750	 177.125200	-1.468293	-12.779960	 1.932208	 5.034751	 68.639840	 1.188597	-2.119075	 50.794770	-0.614845	 1.630226	-30.580330	 177.582600	 7.092894	-44.204570	 7.558198	 6.312355	 84.776180	 1.507434	 2.396952	 25.030360	-0.071132	-11.036680	 2.877700	 1.285334	-10.857020	-1.039772	 0.061673	-11.243900	-2.796244	-1.019534	-91.777290	 78.509080	 178.529400	 38.319580	 64.417880	-51.306630	 9.895885	-20.483490	-39.938500	 14.553500	-46.972030	 3.385339	-3.812334	 37.924440	-2.927599	-2.450526	 36.184240	 0.754587	-1.378229	 35.397820	-2.634230	 0.129753	 4.508788	-3.105671	-1.671590	-11.035730	 0.259750	 89.785970	 78.345440	 179.368900	-34.933690	 74.154080	 34.270180	-18.730710	-20.426710	 32.804450	-20.566300	-48.693710	 2.517799	 6.437017	 35.671460	-0.771858	 2.830251	 35.756010	-7.813440	-2.350882	 35.473990	 5.254307
